<svg xmlns="http://www.w3.org/2000/svg" enable-background="new -360.158 1940.99 3000 3000" viewBox="-360.158 1940.99 3000 3000" id="online-shopping-delivery-service"><path fill="#DCF4E6" d="M1888.625,3560.471c-0.291-3.21-0.701-6.419-1.168-9.571c-0.933-7.351-2.159-14.646-3.618-22.058
			c-17.799-90.508-65.941-192.689-97.862-303.388c-0.758-2.741-1.517-5.485-2.276-8.227
			c-16.573-59.289-28.185-121.087-27.602-184.694c-0.057-3.443,0.001-6.886,0.234-10.154c0.233-11.205,0.875-22.35,1.984-33.496
			c10.212-103.697,7.353-206.81-10.446-298.486c-0.817-4.202-1.693-8.461-2.567-12.604
			c-27.718-130.89-86.832-236.805-182.826-284.948c-33.146-16.689-64.774-28.244-95.061-35.072c-2.684-0.7-5.368-1.283-8.052-1.751
			c-217.547-44.116-365.128,153.299-498.819,427.043c-85.956,176.056-177.69,246.082-266.507,287.981
			c-5.544,2.626-11.029,5.195-16.573,7.587c-64.132,28.185-126.455,44.174-183.643,77.788
			c-154.116,90.625-228.343,259.854-179.325,416.596c0.992,3.209,1.984,6.418,3.093,9.628
			c28.71,82.864,92.26,161.702,197.181,222.975c35.188,20.6,70.084,39.507,104.689,57.071c2.392,1.225,4.843,2.51,7.294,3.677
			c31.337,15.814,62.381,30.286,93.076,43.708c2.567,1.051,5.076,2.159,7.586,3.268c39.973,17.098,79.304,32.27,118.052,45.576
			c2.683,0.934,5.368,1.867,8.111,2.742c112.275,37.931,219.239,60.047,318.793,68.917c3.443,0.291,6.886,0.584,10.271,0.817
			c109.883,8.812,210.72,1.342,299.595-19.256c3.618-0.818,7.12-1.635,10.621-2.568c134.274-32.855,240.655-95.703,309.515-176.816
			c2.217-2.684,4.376-5.311,6.594-7.994c43.183-53.57,70.376-114.61,78.896-180.084c0.409-2.859,0.758-5.777,0.992-8.695
			C1891.542,3611.357,1891.484,3586.089,1888.625,3560.471z"></path><path fill="#FFF" d="M619.462,3862.692c35.829-71.193,83.914-142.619,143.085-201.791
				c54.68-54.679,118.869-98.796,191.638-122.429c134.975-43.708,281.914-13.363,436.904,90.275
				c195.897,131.008,329.764,180.842,417.88,196.014c-2.218,2.685-4.377,5.312-6.594,7.995
				c-89.399-16.69-222.799-68.042-415.896-197.182c-152.715-102.179-297.318-132.175-429.784-89.225
				c-148.981,48.26-261.665,184.869-329.94,320.019C624.304,3865.201,621.853,3863.917,619.462,3862.692z"></path><path fill="#FFF" d="M719.832,3910.076c30.694-51.935,62.323-94.185,95.06-126.923c43.882-43.883,89.75-70.726,137.952-81.112
				c99.728-21.416,211.361,25.909,341.259,144.72c75.512,68.975,141.92,122.078,198.758,162.811
				c-3.501,0.933-7.003,1.75-10.621,2.567c-55.788-40.382-120.562-92.435-193.681-159.251
				c-127.856-116.885-237.096-163.569-334.023-142.736c-81.756,17.565-156.684,84.44-227.118,203.193
				C724.908,3912.235,722.399,3911.127,719.832,3910.076z"></path><path fill="#FFF" d="M845.471 3958.919c16.69-27.076 33.611-49.251 50.885-66.525 32.737-32.738 66.466-47.792 100.895-44.875 75.746 6.303 140.403 97.103 185.395 183.876-3.385-.233-6.828-.525-10.271-.817-44-83.564-105.681-169.054-175.823-174.89-48.96-4.027-96.927 31.57-142.97 105.973C850.839 3960.787 848.154 3959.854 845.471 3958.919zM317.591 3582.646c-1.108-3.209-2.101-6.419-3.093-9.628 20.599-26.668 44.875-54.679 73.41-83.215 121.787-121.788 321.361-253.086 645.057-330.056 418.521-99.553 612.669-306.656 701.835-462.813 3.618-6.42 7.178-12.78 10.504-19.141.875 4.143 1.75 8.403 2.567 12.604-1.926 3.56-3.91 7.061-5.894 10.562-89.984 157.675-285.705 366.587-707.03 466.84C633.233 3263.385 423.971 3442.652 317.591 3582.646zM677.466 3078.634c5.544-2.393 11.029-4.961 16.573-7.587 157.792 4.902 349.547-31.278 499.286-190.236 166.253-176.408 237.155-370.672 266.041-524.788 2.684.467 5.368 1.05 8.052 1.751-29.177 155.342-100.72 351.064-268.083 528.697C1042.243 3053.016 839.985 3086.628 677.466 3078.634zM1467.477 3451.522c-55.146-66.232-65.592-135.149-30.169-199.282 12.779-23.167 30.227-45.167 51.177-66.117 65.415-65.416 165.552-120.152 267.849-163.743-.234 3.268-.292 6.711-.234 10.154-132.874 56.78-260.905 132.057-311.556 223.675-42.483 77.029-7.528 145.829 29.235 190.062 84.906 101.83 269.017 180.318 415.079 189.713-.234 2.917-.584 5.835-.992 8.694C1739.352 3635.866 1555.184 3556.853 1467.477 3451.522z"></path><path fill="#FFF" d="M1575.025,3325.184c3.385-10.271,9.862-19.899,18.79-28.827c36.122-36.122,112.859-61.622,189.887-79.129
				c0.759,2.741,1.518,5.486,2.277,8.227c-94.185,21.126-187.32,53.921-203.135,102.297
				c-25.209,77.262,196.773,178.916,304.613,223.148c0.467,3.152,0.877,6.361,1.168,9.571
				C1780.493,3516.53,1547.072,3410.79,1575.025,3325.184z"></path><g><path fill="#DCF4E6" d="M2011.369,4369.541H557.183c15.347-102.194,70.395-187.714,145.059-232.058
			c27.634-16.589,58.055-27.479,90.04-31.469c19.768-81.552,54.032-155.57,99.169-217.747
			c86.896-119.606,214.22-195.016,356.096-195.016c195.331,0,362.987,143.033,435.799,347.421c9.198-1.14,18.491-2.005,27.895-2.005
			c137.578,0,248.993,135.161,248.993,301.769c0,1.688,0,3.103-0.11,4.559C1978.547,4349.68,1995.802,4358.144,2011.369,4369.541z"></path><path fill="#93E5B6" d="M1197.077,4369.541h658.67c-17.384-31.374-54.326-21.646-94.096-22.484
			c-7.433-23.455-28.031-22.962-72.403-15.739c56.214-51.265,38.676-101.629-59.361-68.802
			c111.978-152.444-61.61-187.284-87.245-190.333c-32.3-3.853-180.783,19.891-102.083,178.638
			c-95.339-39.569-121.422,7.201-49.469,89.495C1322.352,4343.539,1239.989,4358.637,1197.077,4369.541z"></path><path fill="#93E5B6" d="M268.314,4369.541h929.181c-60.275-14.001-185.166-30.581-241.35-31.764
			c-10.501-33.135-39.6-32.439-102.287-22.236c79.416-72.422,54.638-143.574-83.861-97.198
			c158.195-215.363-87.039-264.583-123.253-268.89c-45.632-5.443-255.398,28.101-144.216,252.368
			c-134.689-55.901-171.536,10.173-69.886,126.433C335.533,4332.807,301.076,4344.201,268.314,4369.541z"></path></g><g><path fill="#91C4F6" d="M681.809,4426.967c-47.388,0-85.94-38.552-85.94-85.94V2565.545c0-47.388,38.551-85.944,85.94-85.944
			h892.907c47.388,0,85.945,38.556,85.945,85.944v1775.482c0,47.388-38.557,85.94-85.945,85.94H681.809z"></path><path fill="#CDEEFF" d="M681.809,4364.197c-12.776,0-23.171-10.395-23.171-23.17V2565.545c0-12.781,10.395-23.176,23.171-23.176
			h892.907c12.781,0,23.176,10.395,23.176,23.176v1775.482c0,12.775-10.395,23.17-23.176,23.17H681.809z"></path></g><g><polygon fill="#D7A28E" points="1323.601 4148.91 1427.748 4239.046 1459.528 4184.612 1389.884 4092.364"></polygon><path fill="#FFC439" d="M1438.029,4151.49c-0.285-10.708,82.367,48.961,80.499,56.372
						c-1.868,7.41-102.428,159.296-118.21,168.792c-15.784,9.497-44.137-9.113-32.754-35.391
						c11.384-26.276,36.742-80.331,28.632-107.804c0,0-17.406-27.267-17.081-32.623c0.326-5.356,19.853,6.432,19.853,6.432
						S1438.713,4177.19,1438.029,4151.49z"></path><path fill="#DBA12C" d="M1375.045,4324.334c0.68,0.961,3.165,0.082,6.782,0.013c3.659-0.055,8.684,1.173,14.225,3.498
							c11.087,4.754,19.81,10.634,21.184,8.981c1.328-1.404-5.522-10.315-18.316-15.876c-6.349-2.707-13.293-3.465-18.034-1.798
							C1376.132,4320.875,1374.496,4323.695,1375.045,4324.334z"></path><path fill="#11405C" d="M1508.274,4193.456c3.041,1.883,16.048,10.927,13.392,16.916
						c-2.655,5.988-119.361,175.365-122.446,174.855c-3.086-0.511-11.93-6.161-13.96-6.758
						C1383.228,4377.871,1508.274,4193.456,1508.274,4193.456z"></path><path fill="#DBA12C" d="M1413.02 4262.565c-1.737-7.214-18.584-5.697-19.682-2.574C1392.241 4263.116 1414.732 4269.68 1413.02 4262.565zM1407.552 4280.377c-1.736-7.215-18.584-5.697-19.681-2.574C1386.773 4280.927 1409.265 4287.491 1407.552 4280.377zM1400.72 4298.136c-1.735-7.214-18.583-5.697-19.68-2.574C1379.942 4298.686 1402.432 4305.25 1400.72 4298.136zM1441.607 4233.08c7.961 5.575 18.934 3.641 24.51-4.321 5.574-7.961 3.64-18.934-4.321-24.509-7.96-5.574-18.934-3.64-24.508 4.321C1431.712 4216.532 1433.647 4227.505 1441.607 4233.08z"></path><path fill="#2F627C" d="M1273.329,3418.278l-88.078,348.287l227.754,343.619l-58.603,73.19c0,0-415.505-327.058-409.148-375.402
				c6.357-48.344,85.332-398.102,85.332-398.102L1273.329,3418.278z"></path><path fill="#11405C" d="M1340.88,4001.299l-50.334,131.003l-0.106-0.089l-247.88-210.967c0,0,68.341-23.705,67.077-53.162
				c-1.264-29.455-10.004-258.555-10.004-258.555v-178.946l67.605,141.175l44.226,91.198l-26.22,103.581L1340.88,4001.299z"></path><g><path fill="#D7A28E" d="M1206.614,4376.818c-0.642,3.891-6.01,63.887-8.887,80.336c-8.418,6.603-56.022-1.643-58.52-10.715
					c-2.496-9.074,6.669-80.764,6.669-80.764L1206.614,4376.818z"></path><path fill="#FFC439" d="M1183.839,4527.465c-6.244,1.622-130.976-21.63-143.291-23.668
					c-12.317-2.041-0.247-45.567,37.938-40.164l50.964-28.812c3.463-8.571,7.785-17.981,10.863-21.578
					c5.558-6.422,24.249-4.206,34.827,5.747c4.907,4.642,6.041,12.846,5.488,20.716c12.094,2.271,20.935,5.188,20.611,12.026
					C1200.794,4461.197,1190.119,4525.847,1183.839,4527.465z"></path><path fill="#DBA12C" d="M1112.319 4489.753c-.268-4.488-15.681-26.352-35.619-26.094 0 0 10.785-11.319 27.619 2.064C1116.745 4475.604 1112.319 4489.753 1112.319 4489.753zM1170.362 4478.767c-1.161 7.014 2.181 13.409 7.465 14.284 5.285.874 10.506-4.107 11.663-11.123 1.161-7.017-2.183-13.413-7.465-14.284C1176.742 4466.771 1171.521 4471.752 1170.362 4478.767zM1132.294 4465.896c-4.9-3.938-31.85-10.168-25.19-12.842 6.658-2.676 26.263 5.006 26.991 10.011C1134.822 4468.07 1132.294 4465.896 1132.294 4465.896zM1142.256 4458.014c-4.9-3.94-31.85-10.168-25.192-12.843 6.663-2.677 26.267 5.002 26.993 10.009C1144.787 4460.186 1142.256 4458.014 1142.256 4458.014zM1152.219 4450.129c-4.9-3.939-31.849-10.17-25.189-12.845 6.658-2.675 26.263 5.006 26.993 10.011C1154.747 4452.3 1152.219 4450.129 1152.219 4450.129z"></path><path fill="#11405C" d="M1189.003,4516.77c0.015-0.095-55.646-6.578-86.498-11.846c-3.447-0.589-4.78-9.895-35.617-15.436
					c-21.3-4.148-29.667,1.433-30.541,2.06c-1.64,1.173-6.541,14.047-0.665,16.114c5.876,2.067,144.68,26.346,147.423,24.354
					C1188.528,4528.082,1189.003,4516.77,1189.003,4516.77z"></path></g><polygon fill="#2F627C" points="1407.983 3409.87 1222.749 4408.279 1127.843 4387.26 1134.94 3559.587 1094.023 3409.87"></polygon><path fill="#F2CD33" d="M1169.135,2857.785l-32.076,13.342c0,0-90.141,116.477-85.488,125.902
				c4.653,9.425,91.63,53.63,91.63,53.63l39.208-83.758L1169.135,2857.785z"></path><path fill="#F2CD33" d="M999.261,3409.87c0,0,380.57,87.578,419.381,45.04c38.811-42.538-62.659-586.147-83.251-597.125
				c-20.592-10.979-166.255,0-166.255,0S1049.153,3209.692,999.261,3409.87z"></path><g><path fill="#D7A28E" d="M1436.589,3030.014c0,0,54.813,113.669,56.019,129.722c1.208,16.052-75.919,19.309-88.506,0.179
				c-5.006-7.61-49.015-83.165-49.015-83.165L1436.589,3030.014z"></path><path fill="#F2CD33" d="M1314.86,2853.892l34.628,4.159c0,0,100.995,169.826,121.211,207.441
				c-36.594,24.092-72.613,30.668-104.461,37.832c-27.567-41.225-28.485-46.68-43.36-77.669
				C1295.551,2950.602,1314.86,2853.892,1314.86,2853.892z"></path><path fill="#DBA12C" d="M1307.543,2949.567c1.565,15.477,34.004,125.63,56.817,150.941c0,0-28.435-21.15-39.529-61.432
				C1313.57,2998.195,1307.543,2949.567,1307.543,2949.567z"></path></g><g><path fill="#11405C" d="M1176.827,2643.891c0,0,107.996,24.939,112.474,46.007c2.193,10.32,9.037,44.339-10.301,57.558
						c9.469,31.661,0.064,36.601-16.179,36.601C1230.983,2784.057,1175.581,2669.234,1176.827,2643.891z"></path><path fill="#DBA12C" d="M1143.217,2646.184c0,0,21.531-82.773,106.067-55.255c61.242,19.936,61.263,74.613,53.095,94.954
						c-7.31,18.204-10.799,19.494-10.799,19.494s-17.339-16.187-46.817-29.237
						C1208.166,2659.936,1156.813,2646.184,1143.217,2646.184z"></path><path fill="#009444" d="M1164.611,2637.921c7.962,1.266,15.818,3.509,23.663,5.339c7.195,1.678,14.511,2.867,21.651,4.766
						c14.845,3.949,28.981,10.447,42.403,17.838c13.809,7.604,26.784,16.545,40.06,25.015c2.049,1.307,4.013,2.75,5.951,4.234
						c-4.555,9.418-6.759,10.263-6.759,10.263s-17.339-16.187-46.817-29.237c-36.596-16.203-87.95-29.955-101.546-29.955
						c0,0,1.119-4.252,3.809-10.488C1152.766,2636.987,1159.053,2637.038,1164.611,2637.921z"></path><path fill="#D7A28E" d="M1138.308,2654.841c0,0-8.594,127.054,21.361,149.759c29.955,22.703,96.345-21.406,96.345-21.406
						s19.223-87.041,7.458-99.322C1251.706,2671.588,1152.268,2637.973,1138.308,2654.841z"></path><path fill="#11405C" d="M1137.166,2656.441c0,0-16.376,10.984-13.904,17.634c2.472,6.65,18.032,1.639,24.866,0
						c6.834-1.638,24.43,4.323,30.246,4.905c5.816,0.582,8.215-9.742,22.648-10.469c14.432-0.727,29.41,29.236,36.536,36.866
						c7.125,7.631,14.251-29.13,15.123-32.489C1253.553,2669.528,1161.976,2640.445,1137.166,2656.441z"></path><path fill="#D7A28E" d="M1193.787,2802.582l-3.49,44.206c0,0,3.199,16.286,40.134,15.996
						c36.935-0.291,48.568-20.359,48.568-20.359l-22.103-104.342L1193.787,2802.582z"></path><path fill="#C18C7C" d="M1193.196,2810.071l37.745-17.813c0,0-18.788,41.174-26.275,53.969c-7.487,12.794,0,24.9,0,24.9
						s-12.811-1.058-15.324-14.165L1193.196,2810.071z"></path><path fill="#FFC439" d="M1242.177,2672.887c0,0-32.307-9.516-50.301-11.152c-17.995-1.636-54.441-4.21-54.441-4.21
						s-45.805-22.903-35.172-31.082c10.633-8.179,59.562-6.209,80.01,1.969C1202.723,2636.591,1242.177,2672.887,1242.177,2672.887z
						"></path><path fill="#DBA12C" d="M1221.751,2888.738c0,0-42.435-14.749-40.63-24.207c1.806-9.458,8.221-29.219,8.221-29.219
						s10.485,13.526,37.926,10.915c27.441-2.611,51.271-19.942,51.271-19.942l9.93,25.816
						C1288.469,2852.101,1255.589,2886.56,1221.751,2888.738z"></path><g><path fill="#11405C" d="M1163.575,2766.785c0,0,14.783-0.992,29.433-0.646
							C1193.008,2766.139,1171.987,2794.903,1163.575,2766.785z"></path><path fill="#FFF" d="M1163.575,2766.785c0,0,0.773,3.878,1.445,4.102c0.672,0.223,20.212,0.086,25.836-2.184l2.152-2.563
							C1193.008,2766.139,1178.868,2764.358,1163.575,2766.785z"></path></g><g><path fill="#11405C" d="M1161.332 2696.937c0 0-27.27 2.3-30.357 0-3.087-2.3 4.63-9.071 16.979-7.666C1160.302 2690.677 1164.419 2696.426 1161.332 2696.937zM1138.308 2712.025c0 4.418 3.037 7.988 6.766 7.988 3.727 0 6.765-3.569 6.765-7.988s-3.038-8.007-6.765-8.007c-1.045 0-2.032.276-2.92.808 1.322.395 2.308 1.815 2.308 3.511 0 1.991-1.381 3.629-3.078 3.629-1.242 0-2.326-.888-2.8-2.15C1138.407 2710.526 1138.308 2711.256 1138.308 2712.025z"></path></g><g><path fill="#11405C" d="M1193.991 2694.952c0 0 27.269 2.3 30.356 0 3.087-2.299-4.631-9.071-16.979-7.665C1195.02 2688.692 1190.903 2694.441 1193.991 2694.952zM1201.021 2710.04c0 4.419 3.037 7.988 6.766 7.988 3.727 0 6.765-3.569 6.765-7.988 0-4.418-3.038-8.007-6.765-8.007-1.045 0-2.031.276-2.92.808 1.322.395 2.308 1.815 2.308 3.511 0 1.992-1.381 3.63-3.077 3.63-1.243 0-2.327-.889-2.8-2.15C1201.121 2708.541 1201.021 2709.272 1201.021 2710.04z"></path></g><path fill="#11405C" d="M1171.003,2747.456c0.516,0,1.016-0.264,1.296-0.741c0.42-0.713,0.181-1.633-0.533-2.053
				c-3.357-1.975-3.926-3.155-3.967-3.683c-0.086-1.091,1.806-2.64,3.808-4.281c1.215-0.996,2.595-2.126,3.893-3.429
				c6.146-6.177,3.61-24.917,2.784-24.822c-0.824,0.085-0.641,18.414-4.911,22.703c-1.189,1.195-2.45,2.227-3.67,3.226
				c-2.737,2.245-5.104,4.184-4.898,6.833c0.16,2.057,1.837,3.921,5.44,6.039
				C1170.483,2747.389,1170.745,2747.456,1171.003,2747.456z"></path></g><g><polygon fill="#FFC439" points="723.471 2997.029 943.198 2950.347 1162.924 2982.586 947.067 3057.022"></polygon><polygon fill="#DBA12C" points="953.04 3280.754 1166.892 3228.534 1162.924 2982.586 946.311 3028.677"></polygon><polygon fill="#CDEEFF" points="821.791 2976.14 890.54 2961.942 1085.267 2997.836 1087.631 3047.254 1060.57 3055.617 1055.552 3047.561 1052.925 3058.982 1032.263 3066.125 1031.574 3013.201" opacity=".5"></polygon><polygon fill="#CDEEFF" points="1055.745 3255.763 1055.621 3217.395 1068.887 3214.819 1071.808 3219.506 1073.336 3212.945 1108.036 3203.101 1112.107 3241.967" opacity=".5"></polygon><polygon fill="#FFC439" points="723.471 2997.029 730.534 3249.668 953.04 3280.754 946.311 3028.677"></polygon><path fill="#DBA12C" d="M723.471,2997.029l222.839,31.648c0,0-69.524,8.18-115.695,0
			C784.444,3020.498,723.471,2997.029,723.471,2997.029z"></path></g><g><path fill="#D7A28E" d="M1195.778,3110.664c0,0,254.721,1.643,275.33,18.935c20.609,17.292,29.669,39.397,19.156,64.471
			c-10.514,25.073-44.452,26.687-65.98,28.277c-21.528,1.589-235.94-36.823-235.94-36.823L1195.778,3110.664z"></path><path fill="#C18C7C" d="M1313.11,3113.183c3.667,0.131,113.637-3.495,111.888,8.806
			C1423.249,3134.29,1313.11,3113.183,1313.11,3113.183z"></path><path fill="#D7A28E" d="M1155.45,3084.691c-21.392-8.51-43.375-7.041-52.544-5.887c-15.561,1.984-67.575,26.173-67.575,26.173
			s2.044,7.598,4.335,9.847c3.723,3.655,13.447,3.707,23.56,0.675c-6.55,3.369-17.937,10.701-17.937,10.701s4.597,8.023,7.474,9.484
			c3.852,1.956,12.423,1.23,18.735-0.894c-4.381,2.875-12.071,7.303-12.071,7.303s6.17,8.447,9.239,9.463
			c5.837,1.934,15.965-1.065,24.552-4.183c-5.887,3.123-14.636,10.769-14.636,10.769s7.009,6.426,9.772,7.42
			c10.736,3.864,43.221-8.976,43.221-8.976c21.071,25.293,41.993,28.228,56.769,28.936c3.573,0.126,7.434-74.859,7.434-74.859
			S1171.433,3091.009,1155.45,3084.691z"></path><path fill="#C18C7C" d="M1099.802 3102.146c.05.313-2.058.872-5.398 1.938-3.339 1.072-7.918 2.643-12.92 4.577-10.009 3.847-18.001 7.355-18.257 6.839-.257-.5 7.391-4.873 17.519-8.766 5.056-1.955 9.795-3.335 13.289-4.061C1097.535 3101.951 1099.766 3101.896 1099.802 3102.146zM1106.071 3121.336c.073.291-1.866 1.04-4.98 2.254-3.411 1.356-7.562 3.007-12.15 4.831-9.483 3.813-17.201 6.893-17.442 6.369-.238-.51 7.127-4.446 16.673-8.284 4.771-1.921 9.192-3.428 12.463-4.302C1103.909 3121.33 1106.007 3121.073 1106.071 3121.336zM1110.162 3140.67c.221.526-4.103 2.847-9.659 5.187-5.555 2.34-10.238 3.81-10.459 3.285s4.103-2.847 9.658-5.187C1105.258 3141.615 1109.941 3140.145 1110.162 3140.67z"></path></g><g><polygon fill="#91C4F6" points="1436.059 3863.57 1030.956 3791.351 1108.235 3207.289 1462.438 3238.13"></polygon><path fill="#549BEC" d="M1459.679,3302.56l-23.63,561.039l-405.097-72.259l20.431-154.571
			c45.954,100.785,106.659,105.68,191.386,83.03C1403.738,3676.585,1449.235,3392.965,1459.679,3302.56z" opacity=".25"></path><polygon fill="#549BEC" points="1462.438 3238.13 1478.522 3251.906 1490.304 3240.558 1522.197 3825.851 1490.854 3833.015 1436.059 3863.57"></polygon><ellipse cx="1187.976" cy="3299.683" fill="#549BEC" rx="10.94" ry="15.316"></ellipse><path fill="#549BEC" d="M1336.166,3306.314c0,8.203-4.75,14.852-10.609,14.852c-5.859,0-10.609-6.649-10.609-14.852
			c0-8.202,4.75-14.852,10.609-14.852C1331.416,3291.462,1336.166,3298.112,1336.166,3306.314z"></path><path fill="#CDEEFF" d="M1328.549,3318.314c5.274-23.634,10.548-47.268,15.822-70.903c4.531-20.303,10.094-40.741,11.906-61.521
				c3.258-37.365-13.267-69.896-47.127-86.995c-17.177-8.674-36.469-12.422-55.586-13.177c-14.319-0.566-31.222-0.185-40.941,12.062
				c-11.018,13.882-1.494,28.897,8.057,40.567c11.174,13.653,38.369,25.96,36.263,46.108c-1.442,13.797-12.705,23.675-22.058,32.666
				c-7.695,7.396-15.022,15.116-21.806,23.361c-12.219,14.852-31.848,37.155-30.613,57.742c0.319,5.318,8.683,5.805,8.36,0.426
				c-1.049-17.475,16.363-37.48,26.803-50.552c10.97-13.737,24.715-24.674,35.933-38.078c8.441-10.086,14.63-23.576,10.639-36.872
				c-3.992-13.301-16.953-20.492-26.631-29.218c-6.809-6.138-13.335-13.344-17.913-21.317c-7.651-13.326-0.313-24.203,13.584-27.553
				c17.386-4.19,39.703-0.284,56.4,4.96c38.155,11.985,61.392,43.187,58.448,83.498c-1.565,21.414-7.484,42.519-12.146,63.41
				c-5.114,22.918-10.228,45.836-15.342,68.754C1319.436,3320.897,1327.376,3323.569,1328.549,3318.314L1328.549,3318.314z"></path></g><g><path fill="#D7A28E" d="M823.433,3268.006c0,0-13.25,13.964-24.786-9.177c-11.534-23.143,2.163-33.737,9.432-29.577
					s12.242,6.288,12.691,20.517c0,0,5.05-11.304,13.896-7.854c8.844,3.452,11.58,12.488,11.58,12.488s2.409-10.967,7.232-11.467
					c4.822-0.501,14.851,6.509,16.333,18.759c0,0,6.434-10.845,16.913-0.164c7.008,7.143,7.493,11.214,7.493,11.214l15.037,2.009
					c0,0-12.732,22.816-36.294,8.068c0,0-14.413,10.764-23.041-8.501C849.919,3274.32,831.628,3290.917,823.433,3268.006z"></path><path fill="#C18C7C" d="M823.541 3267.798c.743-.347-.648-4.368-1.291-9.422-.727-5.058-.381-9.217-1.073-9.407-.757-.256-2.424 4.207-1.63 9.771C820.275 3264.317 822.943 3268.132 823.541 3267.798zM849.771 3274.875c.347-.196.096-1.33-.223-3.13-.326-1.805-.709-4.315-1.101-7.12-.785-5.609-1.438-10.237-2.203-10.221-.74.007-1.311 4.769-.497 10.603.406 2.911 1.121 5.527 1.963 7.323C848.552 3274.137 849.465 3275.053 849.771 3274.875zM872.96 3282.821c.335-.246-.117-1.387-.576-3.229-.449-1.859-.858-4.475-1.083-7.441-.469-5.929-.375-10.877-1.144-10.969-.721-.109-2.067 4.871-1.574 11.191.236 3.147 1.003 6.003 1.997 7.9C871.596 3282.181 872.697 3283.029 872.96 3282.821z"></path></g><g><path fill="#D7A28E" d="M1250.785,2677.82c0,0,9.015-8.15,21.54-2.514c13.679,6.155-3.855,40.898-12.724,40.896
			c-8.564-0.001-10.191-4.74-10.01-11.401C1249.901,2693.39,1250.785,2677.82,1250.785,2677.82z"></path><path fill="#11405C" d="M1265.108,2681.844c-4.157,2.777-12.077,12.614-7.805,20.718c0,0,0.296-5.252,3.289-8.272l7.217-2.771
			l-6.978-0.941L1265.108,2681.844z"></path></g><polygon fill="#D7A28E" points="1195.778 3110.664 1284.235 3112.781 1289.707 3203.101 1207.097 3188.85"></polygon></g><g><path fill="#549BEC" d="M984.384,2689.83v190.906c0,15.338-14.349,27.846-32.255,27.846H595.237v-246.599h356.892
			C970.034,2661.983,984.384,2674.49,984.384,2689.83z" opacity=".35"></path><path fill="#549BEC" d="M995.114,2604.553H260.066c-16.455,0-29.794,13.339-29.794,29.795v201.575
		c0,16.453,13.339,29.794,29.794,29.794h735.048c16.455,0,29.795-13.341,29.795-29.794v-201.577
		C1024.908,2617.892,1011.569,2604.553,995.114,2604.553z"></path><path fill="#11405C" d="M471.717,2786.978c0.237,16.98,14.194,30.553,31.173,30.317c16.98-0.237,30.553-14.193,30.316-31.174
			c-0.236-16.979-14.193-30.552-31.173-30.316C485.054,2756.041,471.481,2769.998,471.717,2786.978z"></path><path fill="#FFC439" d="M487.219,2786.761c0.117,8.419,7.037,15.148,15.456,15.032c8.418-0.118,15.148-7.037,15.03-15.456
			c-0.117-8.418-7.037-15.148-15.455-15.031C493.831,2771.423,487.102,2778.343,487.219,2786.761z"></path><path fill="#11405C" d="M495.314 2786.649c.055 3.948 3.3 7.103 7.247 7.049 3.947-.056 7.103-3.3 7.048-7.248-.055-3.948-3.3-7.103-7.247-7.048C498.415 2779.457 495.259 2782.701 495.314 2786.649zM299.479 2789.376c.236 16.979 14.193 30.553 31.173 30.316s30.553-14.193 30.316-31.173c-.236-16.979-14.193-30.553-31.173-30.316C312.815 2758.439 299.242 2772.396 299.479 2789.376z"></path><path fill="#FFC439" d="M314.98,2789.16c0.117,8.418,7.037,15.148,15.455,15.031c8.419-0.118,15.148-7.037,15.031-15.456
			c-0.117-8.418-7.037-15.148-15.455-15.03C321.593,2773.822,314.863,2780.742,314.98,2789.16z"></path><path fill="#11405C" d="M323.075,2789.048c0.055,3.948,3.3,7.103,7.247,7.048c3.948-0.055,7.103-3.3,7.049-7.248
			c-0.055-3.948-3.3-7.103-7.248-7.048C326.176,2781.855,323.02,2785.1,323.075,2789.048z"></path><path fill="#CDEEFF" d="M298.307,2782.239l49.481-0.689c7.784,2.48,11.605,7.813,13.458,12.788
			c2.089,5.631,1.678,10.781,1.678,10.781s87.167-0.875,99.219-1.381c12.052-0.521,14.966-12.958,21.699-24.774
			c0.848-1.475,2.292-2.83,4.172-4.078l0.048-0.033c13.24-8.69,47.925-11.938,47.925-11.938
			c-0.146-10.449-6.843-16.82-14.405-20.686c-10.041-5.118-21.627-5.857-21.627-5.857l1.509-8.238
			c1.091-5.931-0.055-12.057-3.246-17.175l-20.162-29.33l-16.466-0.14l-6.625-0.052l13.262,39.523l-14.925,66.71l-34.45,0.48
			c-17.956-3.208-23.85-30.33-23.85-30.33l0.265-1.74l2.578-16.919l-93.014,1.295l-5.988,16.805l-6.112,17.193
			C291.37,2778.284,294.24,2782.295,298.307,2782.239z"></path><path fill="#CDEEFF" d="M449.567,2671.446c0.114,8.135,5.366,12.403,5.366,12.403l19.693-0.275
			c2.234-0.031,4.315-0.703,6.052-1.837c3.236-2.055,5.339-5.702,5.281-9.817c-0.081-5.803-4.472-10.581-10.125-11.242
			c-0.354-0.043-0.708-0.071-1.062-0.082c-4.841-0.125-10.133-0.229-13.267-0.185
			C454.608,2660.507,449.454,2663.328,449.567,2671.446z"></path><path fill="#11405C" d="M397.84,2739.166l-98.699,1.377c0,0-5.326-10.281-0.301-22.216l91.348-0.592l0.009,0.349h0.11
			C390.308,2718.084,401.726,2721.373,397.84,2739.166z"></path><path fill="#CDEEFF" d="M298.66,2748.358l3.405-0.048l-6.525,18.037c-2.619-1.247-4.303-3.874-4.344-6.774l-0.049-3.49
			C291.09,2751.875,294.453,2748.417,298.66,2748.358z"></path><path fill="#2F627C" d="M465.028,2670.616l-17.192-14.002l0.044,3.215l16.255,12.609
			C464.135,2672.437,466.062,2672.669,465.028,2670.616z"></path><path fill="#11405C" d="M448.207,2656.334l0.063,4.567c0.045,3.209-1.591,5.834-3.655,5.863l-0.225-16.19
			C446.453,2650.546,448.163,2653.125,448.207,2656.334z"></path><path fill="#91C4F6" d="M298.307,2782.239l49.481-0.689c7.784,2.48,11.605,7.813,13.458,12.788l100.618-1.401l22.028-72.71
			l-22.302-38.738l-6.625-0.052l13.262,39.523l-14.925,66.71l-34.45,0.48c-5.755-1.03-10.257-4.504-13.725-8.765
			c-7.394-9.03-10.125-21.565-10.125-21.565l0.162-1.064l0.073-0.531c0.015-0.096,0.03-0.145,0.03-0.145l-96.052,1.337l-0.372-0.156
			l-6.112,17.193C291.37,2778.284,294.24,2782.295,298.307,2782.239z"></path><path fill="#11405C" d="M457.766,2685.188c0.029,2.092,1.749,3.766,3.842,3.736c2.092-0.029,3.765-1.749,3.736-3.841
			c-0.029-2.093-1.749-3.766-3.842-3.737C459.41,2681.375,457.737,2683.094,457.766,2685.188z"></path><path fill="#DBA12C" d="M474.41,2668.078c0.076,5.449,2.492,10.319,6.268,13.659c1.243-0.789,2.322-1.817,3.174-3.003
			c1.356-1.916,2.143-4.275,2.107-6.815c-0.081-5.803-4.472-10.581-10.125-11.242
			C474.886,2662.957,474.374,2665.457,474.41,2668.078z"></path><path fill="#91C4F6" d="M483.842,2778.964l4.172-4.078l0.048-0.033l33.52-32.624c-10.041-5.118-21.627-5.857-21.627-5.857
			L483.842,2778.964z"></path><path fill="#74AAD7" d="M395.13,2756.644c0.045-0.177,0.076-0.323,0.106-0.42c0.015-0.096,0.03-0.145,0.03-0.145
			s-0.065-0.031-0.112,0.001C395.091,2756.097,395.044,2756.227,395.13,2756.644z"></path><polygon fill="#91C4F6" points="397.836 2739.167 396.258 2749.525 304.832 2740.456"></polygon><path fill="#013476" d="M478.834,2682.655c-0.258,0.004-11.368,0.158-11.368,0.158l16.744,8.639L478.834,2682.655z" opacity=".2"></path><path fill="#FFC439" d="M483.853,2678.735c1.356-1.916,2.143-4.275,2.107-6.815
			c-0.081-5.803-4.472-10.581-10.125-11.242C475.834,2660.678,475.77,2672.223,483.853,2678.735z" opacity=".18"></path><g><path fill="#91C4F6" d="M647.74 2684.445c-2.897 16.287-16.128 27.48-33.664 27.48h-20.59l9.708-54.954h20.59C641.321 2656.971 650.638 2668.088 647.74 2684.445zM615.253 2700.496c10.097 0 17.144-5.948 18.865-16.051 1.801-10.097-3.053-16.044-13.15-16.044h-6.419l-5.638 32.096H615.253zM691.922 2667.539h-20.274l-1.957 11.43h17.925l-1.8 10.097h-17.925l-2.193 12.29h20.278l-1.881 10.569h-33.664l9.708-54.954h33.664L691.922 2667.539zM715.903 2656.971l-7.907 44.775h17.536l-1.801 10.18h-30.923l9.708-54.954H715.903zM739.878 2656.971h13.387l-9.708 54.954h-13.387L739.878 2656.971zM758.836 2656.971h14.247l6.343 41.491 20.902-41.491h14.25l-29.201 54.954H768.62L758.836 2656.971zM851.948 2667.539h-20.274l-1.957 11.43h17.925l-1.801 10.097h-17.925l-2.193 12.29h20.278l-1.881 10.569h-33.664l9.708-54.954h33.664L851.948 2667.539zM885.01 2656.971c13.466 0 18.868 7.745 17.147 17.301-1.176 6.884-6.106 13.386-15.031 15.892l8.845 21.762h-15.108l-7.751-20.749h-3.21l-3.682 20.749h-13.386l9.708-54.954H885.01zM882.271 2667.928h-8.3l-2.425 13.775h8.296c5.01 0 7.828-2.582 8.612-6.884C889.239 2670.669 887.282 2667.928 882.271 2667.928zM909.306 2656.971h15.188l6.575 22.936 14.642-22.936h15.031l-25.444 36.793-3.289 18.161h-13.387l3.289-18.161L909.306 2656.971zM615.329 2806.472c-12.29 0-21.294-5.794-19.962-16.988h13.935c-.313 3.838 1.877 6.419 6.419 6.419 3.914 0 6.575-1.721 6.575-5.087 0-8.848-23.487-6.732-23.643-23.019-.156-11.117 8.924-17.613 21.374-17.613 12.058 0 20.198 6.26 19.181 16.439h-14.25c.472-3.448-1.644-5.871-5.635-5.871-3.758 0-6.343 1.957-6.343 5.087 0 8.453 23.723 7.592 23.723 23.796C636.703 2799.345 628.56 2806.472 615.329 2806.472zM683.699 2761.538h-20.274l-1.957 11.429h17.925l-1.801 10.097h-17.925l-2.193 12.29h20.277l-1.881 10.569h-33.664l9.708-54.954h33.664L683.699 2761.538zM716.757 2750.969c13.466 0 18.868 7.745 17.147 17.301-1.176 6.885-6.107 13.387-15.031 15.891l8.845 21.763H712.61l-7.751-20.749h-3.21l-3.681 20.749h-13.387l9.708-54.954H716.757zM714.02 2761.927h-8.3l-2.426 13.775h8.296c5.01 0 7.831-2.582 8.612-6.884C720.987 2764.668 719.03 2761.927 714.02 2761.927zM741.213 2750.969h14.25l6.34 41.491 20.902-41.491h14.25l-29.201 54.954h-16.755L741.213 2750.969zM802.542 2750.969h13.387l-9.708 54.954h-13.387L802.542 2750.969zM851.094 2750.338c13.074 0 21.686 7.362 22.703 19.257h-14.719c-1.409-4.539-5.167-6.885-10.333-6.885-8.22 0-14.875 6.107-16.52 15.656-1.721 9.549 2.818 15.739 11.041 15.739 5.087 0 9.706-2.429 12.759-6.968h14.719c-5.246 11.895-16.44 19.175-29.514 19.175-16.207 0-25.52-11.506-22.626-27.946C821.5 2761.927 834.887 2750.338 851.094 2750.338zM917.121 2761.538h-20.274l-1.957 11.429h17.925l-1.8 10.097h-17.925l-2.193 12.29h20.278l-1.881 10.569H875.63l9.708-54.954h33.664L917.121 2761.538z"></path></g></g></svg>